<svg xmlns="http://www.w3.org/2000/svg" version="1.1" xmlns:xlink="http://www.w3.org/1999/xlink" xmlns:svgjs="http://svgjs.dev/svgjs" width="1000" height="363" viewBox="0 0 1000 363"><g transform="matrix(1,0,0,1,-0.6060596592450906,-0.4999223918144651)"><svg viewBox="0 0 396 144" data-background-color="#ffffff" preserveAspectRatio="xMidYMid meet" height="363" width="1000" xmlns="http://www.w3.org/2000/svg" xmlns:xlink="http://www.w3.org/1999/xlink"><g id="tight-bounds" transform="matrix(1,0,0,1,0.23999962506104566,0.19831632071978333)"><svg viewBox="0 0 395.52 143.60336142105072" height="143.60336142105072" width="395.52"><g><svg viewBox="0 0 670.9119925387595 243.5912655396965" height="143.60336142105072" width="395.52"><g><rect width="10.440241531034458" height="177.14126039608897" x="422.8504752121321" y="33.22500257180377" fill="#1ebbd7" opacity="1" stroke-width="0" stroke="transparent" fill-opacity="1" class="rect-o-0" data-fill-palette-color="primary" rx="1%" id="o-0" data-palette-color="#1ebbd7"></rect></g><g transform="matrix(1,0,0,1,0,33.66565247328657)"><svg viewBox="0 0 395.52 176.25996059312337" height="176.25996059312337" width="395.52"><g id="textblocktransform"><svg viewBox="0 0 395.52 176.25996059312337" height="176.25996059312337" width="395.52" id="textblock"><g><svg viewBox="0 0 395.52 115.76981655116185" height="115.76981655116185" width="395.52"><g transform="matrix(1,0,0,1,0,0)"><svg width="395.52" viewBox="2.25 -35.45000076293945 124.04000091552734 35.900001525878906" height="115.76981655116185" data-palette-color="#1ebbd7"><g class="undefined-text-0" data-fill-palette-color="primary" id="text-0"><path d="M11.9-0.95L11.9-0.95Q15.6-0.95 18.4-3.13 21.2-5.3 21.2-9.75L21.2-9.75Q21.2-11.75 20.23-13.18 19.25-14.6 17.65-15.38 16.05-16.15 14.15-16.73 12.25-17.3 10.35-17.95 8.45-18.6 6.85-19.5 5.25-20.4 4.28-22.05 3.3-23.7 3.3-26L3.3-26Q3.3-30 6.05-32.55 8.8-35.1 13.4-35.1 18-35.1 22.2-34.05L22.2-34.05 22.75-27.8 21.8-27.4 21.3-31.35Q17.6-34.1 14.35-34.1 11.1-34.1 8.9-32.13 6.7-30.15 6.7-26.2L6.7-26.2Q6.7-23.9 8.55-22.55 10.4-21.2 13.03-20.45 15.65-19.7 18.28-18.75 20.9-17.8 22.75-15.55 24.6-13.3 24.6-9.7L24.6-9.7Q24.6-4.85 21.15-2.4 17.7 0.05 12.05 0.05 6.4 0.05 2.25-3L2.25-3 2.3-8.3 3.25-8.55 3.35-5.7Q4.7-3.8 7.05-2.38 9.4-0.95 11.9-0.95ZM28.35-17.4L28.35-17.4Q28.35-25.65 32.57-30.55 36.8-35.45 43.1-35.45L43.1-35.45Q57.85-35.45 57.85-17.4L57.85-17.4Q57.85-9.1 53.65-4.33 49.45 0.45 43.1 0.45L43.1 0.45Q28.35 0.45 28.35-17.4ZM31.75-17.5L31.75-17.5Q31.75-0.55 43.1-0.55L43.1-0.55Q48-0.55 51.22-5.05 54.45-9.55 54.45-17.5L54.45-17.5Q54.45-34.45 43.1-34.45L43.1-34.45Q38.25-34.45 35-29.9 31.75-25.35 31.75-17.5ZM64.75-33.95L62.09-34.25 62.14-35 69-35 88.44-1.4 88.19-33.25Q88-33.75 87.64-33.8L87.64-33.8 83.05-34.2Q83-34.5 83-34.95L83-34.95 92.5-35Q92.5-34.95 92.55-34.25L92.55-34.25 89.34-33.9 89.34 0 85.69 0 66.25-33.6 66.5-1.05 72.19-0.75Q72.19-0.7 72.14 0L72.14 0 62.09 0.05 62.14-0.65 64.75-1Q65.25-1.05 65.34-1.65L65.34-1.65 65.34-33.3Q65.25-33.9 64.75-33.95L64.75-33.95ZM116.49-34.95L126.24-35Q126.24-34.95 126.29-34.25L126.29-34.25 123.44-34 112.74-11.8 112.74-0.95 116.39-0.75Q116.39-0.7 116.34 0L116.34 0 106.34 0.05Q106.34-0.4 106.39-0.65L106.39-0.65 108.99-1Q109.49-1.05 109.59-1.65L109.59-1.65 109.59-11.8 98.34-33.75Q98.14-33.9 97.94-34L97.94-34 95.84-34.2Q95.79-34.5 95.79-34.95L95.79-34.95 105.89-35Q105.89-34.95 105.94-34.25L105.94-34.25 101.84-33.9 112.19-12.65 121.54-33.15Q121.54-33.75 121.09-33.8L121.09-33.8 116.54-34.2Q116.49-34.5 116.49-34.95L116.49-34.95Z" fill="#1ebbd7" data-fill-palette-color="primary"></path></g></svg></g></svg></g><g transform="matrix(1,0,0,1,163.310208,143.10029176329394)"><svg viewBox="0 0 232.209792 33.15966882982943" height="33.15966882982943" width="232.209792"><g transform="matrix(1,0,0,1,0,0)"><svg width="232.209792" viewBox="2.049999952316284 -35.5 252.0699920654297 36" height="33.15966882982943" data-palette-color="#1ebbd7"><path d="M2.05 0L2.05-35 9.9-35 13.4-9.95 13.5-9.95 17-35 24.85-35 24.85 0 19.65 0 19.65-26.5 19.55-26.5 15.55 0 10.95 0 6.95-26.5 6.85-26.5 6.85 0 2.05 0ZM27.5 0L33.2-35 40.65-35 46.35 0 40.85 0 39.85-6.95 39.85-6.85 33.6-6.85 32.6 0 27.5 0ZM34.25-11.6L39.2-11.6 36.75-28.9 36.65-28.9 34.25-11.6ZM49 0L49-35 54.5-35 54.5-20.25 61.5-35 67-35 60.45-22.15 67.1 0 61.35 0 56.7-15.6 54.5-11.15 54.5 0 49 0ZM69.69 0L69.69-35 75.19-35 75.19 0 69.69 0ZM79.29 0L79.29-35 86.19-35 91.54-14.05 91.64-14.05 91.64-35 96.54-35 96.54 0 90.89 0 84.29-25.55 84.19-25.55 84.19 0 79.29 0ZM108.44 0.5Q104.44 0.5 102.34-1.78 100.24-4.05 100.24-8.3L100.24-8.3 100.24-26.7Q100.24-30.95 102.34-33.23 104.44-35.5 108.44-35.5L108.44-35.5Q112.44-35.5 114.54-33.23 116.64-30.95 116.64-26.7L116.64-26.7 116.64-23.7 111.44-23.7 111.44-27.05Q111.44-30.5 108.59-30.5L108.59-30.5Q105.74-30.5 105.74-27.05L105.74-27.05 105.74-7.9Q105.74-4.5 108.59-4.5L108.59-4.5Q111.44-4.5 111.44-7.9L111.44-7.9 111.44-14.75 108.69-14.75 108.69-19.75 116.64-19.75 116.64-8.3Q116.64-4.05 114.54-1.78 112.44 0.5 108.44 0.5L108.44 0.5ZM128.18 0L128.18-35 136.03-35 139.53-9.95 139.63-9.95 143.13-35 150.98-35 150.98 0 145.78 0 145.78-26.5 145.68-26.5 141.68 0 137.08 0 133.08-26.5 132.98-26.5 132.98 0 128.18 0ZM155.08 0L155.08-35 170.08-35 170.08-30 160.58-30 160.58-20.75 168.13-20.75 168.13-15.75 160.58-15.75 160.58-5 170.08-5 170.08 0 155.08 0ZM181.23 0L181.23-35 189.38-35Q193.63-35 195.58-33.02 197.53-31.05 197.53-26.95L197.53-26.95 197.53-24.8Q197.53-19.35 193.93-17.9L193.93-17.9 193.93-17.8Q195.93-17.2 196.75-15.35 197.58-13.5 197.58-10.4L197.58-10.4 197.58-4.25Q197.58-2.75 197.68-1.83 197.78-0.9 198.18 0L198.18 0 192.58 0Q192.28-0.85 192.18-1.6 192.08-2.35 192.08-4.3L192.08-4.3 192.08-10.7Q192.08-13.1 191.3-14.05 190.53-15 188.63-15L188.63-15 186.73-15 186.73 0 181.23 0ZM186.73-20L188.73-20Q190.38-20 191.2-20.85 192.03-21.7 192.03-23.7L192.03-23.7 192.03-26.4Q192.03-28.3 191.35-29.15 190.68-30 189.23-30L189.23-30 186.73-30 186.73-20ZM201.37 0L201.37-35 216.37-35 216.37-30 206.87-30 206.87-20.75 214.42-20.75 214.42-15.75 206.87-15.75 206.87-5 216.37-5 216.37 0 201.37 0ZM218.07 0L223.77-35 231.22-35 236.92 0 231.42 0 230.42-6.95 230.42-6.85 224.17-6.85 223.17 0 218.07 0ZM224.82-11.6L229.77-11.6 227.32-28.9 227.22-28.9 224.82-11.6ZM239.57 0L239.57-35 245.07-35 245.07-5 254.12-5 254.12 0 239.57 0Z" opacity="1" transform="matrix(1,0,0,1,0,0)" fill="#1ebbd7" class="undefined-text-1" data-fill-palette-color="secondary" id="text-1"></path></svg></g></svg></g></svg></g></svg></g><g transform="matrix(1,0,0,1,460.6211919552986,0)"><svg viewBox="0 0 210.29080058346085 243.5912655396965" height="243.5912655396965" width="210.29080058346085"><g><svg xmlns="http://www.w3.org/2000/svg" xmlns:xlink="http://www.w3.org/1999/xlink" version="1.1" x="0" y="0" viewBox="9.63800048828125 3.246999979019165 80.7239990234375 93.50699615478516" enable-background="new 0 0 100 100" xml:space="preserve" height="243.5912655396965" width="210.29080058346085" class="icon-icon-0" data-fill-palette-color="accent" id="icon-0"><g fill="#27e494" data-fill-palette-color="accent"><g fill="#27e494" data-fill-palette-color="accent"><polygon points="36.703,11.011 9.638,26.636 9.638,38.757 36.703,23.131 63.767,38.757 63.767,26.636   " fill="#27e494" data-fill-palette-color="accent"></polygon></g><g fill="#27e494" data-fill-palette-color="accent"><polygon points="63.298,89.092 36.233,73.467 36.233,61.348 63.298,76.973 90.362,61.348 90.362,73.467   " fill="#27e494" data-fill-palette-color="accent"></polygon></g><g fill="#27e494" data-fill-palette-color="accent"><polygon points="9.638,42.012 36.703,26.386 47.198,32.446 20.134,48.072 20.134,79.324 9.638,73.264   " fill="#27e494" data-fill-palette-color="accent"></polygon></g><g fill="#27e494" data-fill-palette-color="accent"><polygon points="77.083,18.872 50.018,3.247 39.522,9.307 66.586,24.932 66.586,56.184 77.083,50.124   " fill="#27e494" data-fill-palette-color="accent"></polygon></g><g fill="#27e494" data-fill-palette-color="accent"><polygon points="23.01,81.127 23.011,49.876 33.507,43.816 33.507,75.068 60.571,90.693 50.075,96.754   " fill="#27e494" data-fill-palette-color="accent"></polygon></g><g fill="#27e494" data-fill-palette-color="accent"><polygon points="90.362,58.092 90.362,26.84 79.866,20.78 79.866,52.031 52.802,67.658 63.298,73.719   " fill="#27e494" data-fill-palette-color="accent"></polygon></g></g></svg></g></svg></g></svg></g><defs></defs></svg><rect width="395.52" height="143.60336142105072" fill="none" stroke="none" visibility="hidden"></rect></g></svg></g></svg>