<svg width="164" height="145" viewBox="0 0 164 145" fill="none" xmlns="http://www.w3.org/2000/svg">
<rect width="164" height="145" fill="white"/>
<path d="M85.2793 54.8498V53.1094H95.1013V54.8498H91.1092V71.013H89.2836V54.8498H85.2793Z" fill="#333333"/>
<path d="M97.6694 53.1094H99.4707V69.2847H106.347V71.013H97.6694V53.1094Z" fill="#333333"/>
<path d="M109.195 53.1094H119.456V54.8742H110.984V60.4728H119.383V62.2255H110.984V69.2482H119.383V71.013H109.195V53.1094Z" fill="#333333"/>
<path d="M85.2793 54.8498V53.1094H95.1013V54.8498H91.1092V71.013H89.2836V54.8498H85.2793Z" stroke="#333333" stroke-width="1.47515" stroke-miterlimit="10"/>
<path d="M97.6694 53.1094H99.4707V69.2847H106.347V71.013H97.6694V53.1094Z" stroke="#333333" stroke-width="1.47515" stroke-miterlimit="10"/>
<path d="M109.195 53.1094H119.456V54.8742H110.984V60.4728H119.383V62.2255H110.984V69.2482H119.383V71.013H109.195V53.1094Z" stroke="#333333" stroke-width="1.47515" stroke-miterlimit="10"/>
<path d="M86.2422 95.0649L88.7859 77.1613H89.078L96.3563 91.8517L103.562 77.1613H103.854L106.422 95.0649H104.657L102.904 82.2609L96.5754 95.0649H96.1251L89.7109 82.1636L87.9705 95.0649H86.2422Z" fill="#333333"/>
<path d="M109.976 77.1613H120.236V78.9261H111.765V84.5247H120.163V86.2774H111.765V93.3001H120.163V95.0649H109.976V77.1613Z" fill="#333333"/>
<path d="M140.002 80.484L138.59 81.5672C137.811 80.5529 136.874 79.7862 135.778 79.2669C134.691 78.7394 133.494 78.4757 132.188 78.4757C130.76 78.4757 129.437 78.8206 128.22 79.5103C127.003 80.1919 126.058 81.1128 125.384 82.2731C124.719 83.4253 124.386 84.7235 124.386 86.1678C124.386 88.3505 125.133 90.1721 126.626 91.6326C128.127 93.0931 130.017 93.8234 132.297 93.8234C134.805 93.8234 136.902 92.8416 138.59 90.878L140.002 91.9491C139.109 93.085 137.993 93.9654 136.655 94.5902C135.324 95.2068 133.835 95.5152 132.188 95.5152C129.056 95.5152 126.585 94.4725 124.776 92.3872C123.258 90.6265 122.5 88.5006 122.5 86.0096C122.5 83.3888 123.417 81.1858 125.25 79.4007C127.092 77.6075 129.397 76.7109 132.163 76.7109C133.835 76.7109 135.344 77.0436 136.691 77.709C138.038 78.3662 139.142 79.2912 140.002 80.484Z" fill="#333333"/>
<path d="M86.2422 95.0649L88.7859 77.1613H89.078L96.3563 91.8517L103.562 77.1613H103.854L106.422 95.0649H104.657L102.904 82.2609L96.5754 95.0649H96.1251L89.7109 82.1636L87.9705 95.0649H86.2422Z" stroke="#333333" stroke-width="1.47515" stroke-miterlimit="10"/>
<path d="M109.976 77.1613H120.236V78.9261H111.765V84.5247H120.163V86.2774H111.765V93.3001H120.163V95.0649H109.976V77.1613Z" stroke="#333333" stroke-width="1.47515" stroke-miterlimit="10"/>
<path d="M140.002 80.484L138.59 81.5672C137.811 80.5529 136.874 79.7862 135.778 79.2669C134.691 78.7394 133.494 78.4757 132.188 78.4757C130.76 78.4757 129.437 78.8206 128.22 79.5103C127.003 80.1919 126.058 81.1128 125.384 82.2731C124.719 83.4253 124.386 84.7235 124.386 86.1678C124.386 88.3505 125.133 90.1721 126.626 91.6326C128.127 93.0931 130.017 93.8234 132.297 93.8234C134.805 93.8234 136.902 92.8416 138.59 90.878L140.002 91.9491C139.109 93.085 137.993 93.9654 136.655 94.5902C135.324 95.2068 133.835 95.5152 132.188 95.5152C129.056 95.5152 126.585 94.4725 124.776 92.3872C123.258 90.6265 122.5 88.5006 122.5 86.0096C122.5 83.3888 123.417 81.1858 125.25 79.4007C127.092 77.6075 129.397 76.7109 132.163 76.7109C133.835 76.7109 135.344 77.0436 136.691 77.709C138.038 78.3662 139.142 79.2912 140.002 80.484Z" stroke="#333333" stroke-width="1.47515" stroke-miterlimit="10"/>
<path d="M37.5314 75.421L27.8027 73.1096V77.7355L37.5314 75.421Z" fill="#333333"/>
<path d="M100.47 103.659C100.47 103.659 100.14 103.659 100.038 103.659C99.9355 103.659 99.775 103.659 99.775 103.659C99.3392 104.131 98.893 104.59 98.4362 105.036C91.245 112.112 81.7153 116.317 71.6406 116.858C70.887 116.898 70.127 116.918 69.3608 116.918C68.5945 116.918 67.8346 116.898 67.081 116.858C56.8793 116.296 47.2435 111.99 40.0189 104.766C32.7943 97.5409 28.4886 87.9051 27.9265 77.7034C27.8823 76.9488 27.8633 76.1878 27.8633 75.4205C27.8633 74.6532 27.8823 73.8954 27.9265 73.1407C28.4384 63.5785 32.2556 54.4909 38.7256 47.4313C39.2308 46.8798 39.7497 46.343 40.2823 45.8209C47.4698 38.7353 57.0024 34.5255 67.081 33.9862C67.8367 33.9462 68.5966 33.9251 69.3608 33.923C70.1249 33.9209 70.8849 33.942 71.6406 33.9862C82.3381 34.5605 92.3956 39.2627 99.696 47.1029H106.074C100.161 39.437 91.9967 33.8144 82.7261 31.0241C73.4554 28.2337 63.5437 28.4155 54.3816 31.5439C45.2195 34.6724 37.2666 40.5906 31.6385 48.4682C26.0105 56.3458 22.9898 65.7877 23 75.4692C23.0103 85.1507 26.0511 94.5861 31.6958 102.452C37.3405 110.317 45.306 116.219 54.4747 119.328C63.6435 122.437 73.5555 122.598 82.8202 119.787C92.085 116.977 100.238 111.338 106.134 103.659H100.47Z" fill="#333333" stroke="#333333" stroke-width="1.31264" stroke-miterlimit="10"/>
<path d="M99.7023 47.1036C92.4003 39.2619 82.3403 34.5596 71.6405 33.9869C70.8869 33.9469 70.127 33.9258 69.3607 33.9237C68.5945 33.9216 67.8345 33.9427 67.0809 33.9869C57.0024 34.5262 47.4698 38.736 40.2822 45.8216C39.7475 46.3437 39.2286 46.8805 38.7255 47.432C32.2555 54.4916 28.4384 63.5792 27.9264 73.1414C27.8822 73.8961 27.8633 74.657 27.8633 75.4212C27.8633 76.1853 27.8822 76.9495 27.9264 77.7041C28.4886 87.9058 32.7942 97.5416 40.0188 104.766C47.2435 111.991 56.8792 116.297 67.0809 116.859C67.8367 116.899 68.5966 116.919 69.3607 116.919C70.1249 116.919 70.8848 116.899 71.6405 116.859C81.713 116.316 91.2402 112.112 98.4298 105.037C98.8866 104.588 99.3329 104.129 99.7686 103.66C99.8539 103.568 99.9391 103.48 100.021 103.385" stroke="#333333" stroke-width="1.31264" stroke-miterlimit="10"/>
<path d="M99.7023 47.1036C92.4003 39.2619 82.3403 34.5596 71.6405 33.9869C70.8869 33.9469 70.127 33.9258 69.3607 33.9237C68.5945 33.9216 67.8345 33.9427 67.0809 33.9869C57.0024 34.5262 47.4698 38.736 40.2822 45.8216C39.7475 46.3437 39.2286 46.8805 38.7255 47.432C32.2555 54.4916 28.4384 63.5792 27.9264 73.1414C27.8822 73.8961 27.8633 74.657 27.8633 75.4212C27.8633 76.1853 27.8822 76.9495 27.9264 77.7041C28.4886 87.9058 32.7942 97.5416 40.0188 104.766C47.2435 111.991 56.8792 116.297 67.0809 116.859C67.8367 116.899 68.5966 116.919 69.3607 116.919C70.1249 116.919 70.8848 116.899 71.6405 116.859C81.713 116.316 91.2402 112.112 98.4298 105.037C98.8866 104.588 99.3329 104.129 99.7686 103.66C99.8539 103.568 99.9391 103.48 100.021 103.385" stroke="#333333" stroke-width="1.17512" stroke-miterlimit="10"/>
<path d="M69.368 43.5826L71.6826 33.8508H67.0566L69.368 43.5826Z" fill="#333333"/>
<path d="M69.368 107.262L71.6826 116.994H67.0566L69.368 107.262Z" fill="#333333"/>
<path d="M42.8424 49.9635L39.5711 44.6555L37.5312 46.6922L42.8424 49.9635Z" fill="#333333"/>
<path d="M99.7742 103.659C99.8595 103.568 99.9447 103.479 100.027 103.385L100.469 103.659L101.135 104.067L99.1111 106.107L98.4512 105.036L99.7742 103.659Z" fill="#333333"/>
<path d="M77.1627 22H61.5736C61.0033 22 60.541 22.4623 60.541 23.0325V25.0945C60.541 25.6647 61.0033 26.127 61.5736 26.127H77.1627C77.733 26.127 78.1953 25.6647 78.1953 25.0945V23.0325C78.1953 22.4623 77.733 22 77.1627 22Z" fill="url(#paint0_linear_1076_2)"/>
<path d="M42.6373 101.003L39.366 106.311L37.3262 104.275L42.6373 101.003Z" fill="#333333"/>
<path d="M50.3027 74.101V62.5757C51.0634 61.646 51.5688 61.4568 52.671 61.6284L73.3534 74.101V93.8362L68.4591 96.8359V84.9948L50.3027 74.101Z" fill="url(#paint1_linear_1076_2)"/>
<path d="M58.5117 61.0532V49.5279C59.2724 48.5981 59.7777 48.409 60.8799 48.5806L81.5623 61.0532V88.9412L76.668 91.941V71.947L58.5117 61.0532Z" fill="url(#paint2_linear_1076_2)"/>
<path d="M64.5106 86.8894L41.9336 73.6274V86.7316L64.5106 100.625V86.8894Z" fill="url(#paint3_linear_1076_2)"/>
<defs>
<linearGradient id="paint0_linear_1076_2" x1="60.5414" y1="24.0645" x2="78.1928" y2="24.0645" gradientUnits="userSpaceOnUse">
<stop stop-color="#008080"/>
<stop offset="1" stop-color="#0BAAAA"/>
</linearGradient>
<linearGradient id="paint1_linear_1076_2" x1="50.3032" y1="79.2125" x2="73.3502" y2="79.2125" gradientUnits="userSpaceOnUse">
<stop stop-color="#008080"/>
<stop offset="1" stop-color="#0BAAAA"/>
</linearGradient>
<linearGradient id="paint2_linear_1076_2" x1="58.5122" y1="70.2431" x2="81.5591" y2="70.2431" gradientUnits="userSpaceOnUse">
<stop stop-color="#008080"/>
<stop offset="1" stop-color="#0BAAAA"/>
</linearGradient>
<linearGradient id="paint3_linear_1076_2" x1="41.934" y1="87.133" x2="64.5075" y2="87.133" gradientUnits="userSpaceOnUse">
<stop stop-color="#008080"/>
<stop offset="1" stop-color="#0BAAAA"/>
</linearGradient>
</defs>
</svg>
